<svg width="20" height="20" viewBox="0 0 20 20" fill="none" xmlns="http://www.w3.org/2000/svg">
<g id="attachment_FILL0_wght200_GRAD0_opsz24 1">
<path id="Vector" d="M7.05125 14.3109C5.78903 14.3109 4.71493 13.8761 3.82896 13.0066C2.94299 12.1368 2.5 11.0732 2.5 9.81573C2.5 8.55837 2.94299 7.49219 3.82896 6.61719C4.71493 5.74219 5.78903 5.30469 7.05125 5.30469H14.3269C15.2083 5.30469 15.9575 5.60781 16.5746 6.21406C17.1915 6.82031 17.5 7.56413 17.5 8.44552C17.5 9.32705 17.1915 10.0709 16.5746 10.6772C15.9575 11.2834 15.2083 11.5866 14.3269 11.5866H7.43583C6.94653 11.5866 6.52507 11.4159 6.17146 11.0745C5.81785 10.7331 5.64104 10.317 5.64104 9.82615C5.64104 9.33531 5.81507 8.91309 6.16312 8.55948C6.51118 8.20573 6.93542 8.02885 7.43583 8.02885H14.359V8.86219H7.43583C7.16986 8.86219 6.94312 8.9533 6.75562 9.13552C6.56812 9.31774 6.47437 9.54184 6.47437 9.80781C6.47437 10.0738 6.56812 10.2979 6.75562 10.4801C6.94312 10.6622 7.16986 10.7532 7.43583 10.7532H14.3429C14.9904 10.75 15.5396 10.5275 15.9904 10.0855C16.4412 9.64358 16.6667 9.09691 16.6667 8.44552C16.6667 7.79941 16.4385 7.2533 15.9823 6.80719C15.5262 6.36108 14.9744 6.13802 14.3269 6.13802H7.05125C6.02236 6.13469 5.14549 6.49094 4.42063 7.20677C3.69576 7.9226 3.33333 8.7942 3.33333 9.82156C3.33333 10.8345 3.69576 11.6955 4.42063 12.4045C5.14549 13.1135 6.02236 13.4712 7.05125 13.4776H14.359V14.3109H7.05125Z" fill="#666666"/>
</g>
</svg>
