<svg width="20" height="20" viewBox="0 0 20 20" fill="none" xmlns="http://www.w3.org/2000/svg">
<g id="event_FILL0_wght200_GRAD0_opsz24 1">
<path id="Vector" d="M12.404 14.9999C11.9168 14.9999 11.5012 14.8279 11.1572 14.4839C10.8132 14.1399 10.6412 13.7243 10.6412 13.2371C10.6412 12.7499 10.8132 12.3343 11.1572 11.9903C11.5012 11.6463 11.9168 11.4743 12.404 11.4743C12.8912 11.4743 13.3068 11.6463 13.6508 11.9903C13.9948 12.3343 14.1668 12.7499 14.1668 13.2371C14.1668 13.7243 13.9948 14.1399 13.6508 14.4839C13.3068 14.8279 12.8912 14.9999 12.404 14.9999ZM4.67964 17.4999C4.2961 17.4999 3.97586 17.3715 3.71891 17.1145C3.46197 16.8576 3.3335 16.5373 3.3335 16.1538V5.51274C3.3335 5.1292 3.46197 4.80896 3.71891 4.55201C3.97586 4.29507 4.2961 4.1666 4.67964 4.1666H6.154V2.30762H7.05143V4.1666H13.013V2.30762H13.8463V4.1666H15.3207C15.7042 4.1666 16.0245 4.29507 16.2814 4.55201C16.5384 4.80896 16.6668 5.1292 16.6668 5.51274V16.1538C16.6668 16.5373 16.5384 16.8576 16.2814 17.1145C16.0245 17.3715 15.7042 17.4999 15.3207 17.4999H4.67964ZM4.67964 16.6666H15.3207C15.4489 16.6666 15.5664 16.6132 15.6732 16.5063C15.7801 16.3995 15.8335 16.282 15.8335 16.1538V8.84608H4.16683V16.1538C4.16683 16.282 4.22025 16.3995 4.32708 16.5063C4.43393 16.6132 4.55145 16.6666 4.67964 16.6666ZM4.16683 8.01274H15.8335V5.51274C15.8335 5.38455 15.7801 5.26703 15.6732 5.16018C15.5664 5.05335 15.4489 4.99993 15.3207 4.99993H4.67964C4.55145 4.99993 4.43393 5.05335 4.32708 5.16018C4.22025 5.26703 4.16683 5.38455 4.16683 5.51274V8.01274Z" fill="black"/>
</g>
</svg>
