<svg width="20" height="15" viewBox="0 0 20 15" fill="none" xmlns="http://www.w3.org/2000/svg">
<path id="Vector" d="M1.66671 1.05833L2.73337 0L16.6667 13.9333L15.6084 15L13.0417 12.4333C12.0834 12.75 11.0667 12.9167 10 12.9167C5.83337 12.9167 2.27504 10.325 0.833374 6.66667C1.40837 5.2 2.32504 3.90833 3.49171 2.88333L1.66671 1.05833ZM10 4.16667C10.6631 4.16667 11.299 4.43006 11.7678 4.8989C12.2366 5.36774 12.5 6.00363 12.5 6.66667C12.5 6.95833 12.45 7.24167 12.3584 7.5L9.16671 4.30833C9.42504 4.21667 9.70837 4.16667 10 4.16667ZM10 0.416667C14.1667 0.416667 17.725 3.00833 19.1667 6.66667C18.4834 8.4 17.325 9.9 15.8334 10.9917L14.65 9.8C15.7834 9.01667 16.7167 7.95 17.35 6.66667C15.975 3.86667 13.1334 2.08333 10 2.08333C9.09171 2.08333 8.20004 2.23333 7.36671 2.5L6.08337 1.225C7.28337 0.708333 8.60837 0.416667 10 0.416667ZM2.65004 6.66667C4.02504 9.46667 6.86671 11.25 10 11.25C10.575 11.25 11.1417 11.1917 11.6667 11.075L9.76671 9.16667C8.57504 9.04167 7.62504 8.09167 7.50004 6.9L4.66671 4.05833C3.84171 4.76667 3.15004 5.65 2.65004 6.66667Z" fill="black"/>
</svg>
