<svg width="24" height="24" viewBox="0 0 24 24" fill="none" xmlns="http://www.w3.org/2000/svg">
<g id="visibility_off_FILL0_wght300_GRAD0_opsz24 1">
<path id="Vector" d="M15.7726 12.9728L14.6496 11.8498C14.7996 11.0217 14.5633 10.2771 13.9408 9.61607C13.3185 8.95524 12.5548 8.69982 11.6496 8.84982L10.5266 7.72682C10.7523 7.62549 10.9837 7.54949 11.2208 7.49882C11.458 7.44815 11.7176 7.42282 11.9996 7.42282C13.1343 7.42282 14.0974 7.81865 14.8891 8.61032C15.6808 9.40199 16.0766 10.3652 16.0766 11.4998C16.0766 11.7818 16.0513 12.0447 16.0006 12.2883C15.9499 12.5318 15.8739 12.76 15.7726 12.9728ZM18.9533 16.0843L17.8496 15.0498C18.4829 14.5665 19.0454 14.0373 19.5371 13.4623C20.0288 12.8873 20.4496 12.2332 20.7996 11.4998C19.9663 9.81649 18.7704 8.47899 17.2121 7.48732C15.6538 6.49565 13.9163 5.99982 11.9996 5.99982C11.5163 5.99982 11.0413 6.03315 10.5746 6.09982C10.1079 6.16649 9.64959 6.26649 9.19959 6.39982L8.03434 5.23457C8.66634 4.98324 9.31184 4.79799 9.97084 4.67882C10.6298 4.55949 11.3061 4.49982 11.9996 4.49982C14.3431 4.49982 16.4565 5.14599 18.3398 6.43832C20.2232 7.73065 21.5969 9.41782 22.4611 11.4998C22.0906 12.3933 21.6121 13.2273 21.0256 14.0018C20.4389 14.7762 19.7482 15.4703 18.9533 16.0843ZM19.7611 21.8691L15.7151 17.8536C15.2023 18.0434 14.6339 18.1986 14.0101 18.3191C13.3864 18.4396 12.7163 18.4998 11.9996 18.4998C9.64959 18.4998 7.53617 17.8537 5.65934 16.5613C3.78234 15.269 2.40859 13.5818 1.53809 11.4998C1.90725 10.6165 2.38417 9.79249 2.96884 9.02782C3.5535 8.26299 4.19709 7.59982 4.89959 7.03832L2.13034 4.23832L3.18434 3.18457L20.8148 20.8151L19.7611 21.8691ZM5.95359 8.09207C5.42525 8.51257 4.91142 9.01807 4.41209 9.60857C3.91275 10.1989 3.50859 10.8293 3.19959 11.4998C4.03292 13.1832 5.22875 14.5207 6.78709 15.5123C8.34542 16.504 10.0829 16.9998 11.9996 16.9998C12.4548 16.9998 12.908 16.9613 13.3593 16.8843C13.8105 16.8075 14.1932 16.7281 14.5073 16.6461L13.2418 15.3498C13.0713 15.419 12.8739 15.4741 12.6496 15.5151C12.4253 15.5562 12.2086 15.5768 11.9996 15.5768C10.8649 15.5768 9.90175 15.181 9.11009 14.3893C8.31842 13.5977 7.92259 12.6345 7.92259 11.4998C7.92259 11.2973 7.94317 11.0855 7.98434 10.8643C8.02534 10.6432 8.08042 10.4409 8.14959 10.2576L5.95359 8.09207Z" fill="#999999"/>
</g>
</svg>
