<svg width="48" height="56" viewBox="0 0 48 56" fill="none" xmlns="http://www.w3.org/2000/svg">
<g id="_?&#235;&#141;&#137;&#236;&#148;&#160;??1" clip-path="url(#clip0_102_953)">
<path id="Vector" d="M35.3545 14.9826C35.3545 15.7018 35.3145 16.396 35.2446 17.0702C35.1947 17.5546 35.1248 18.0241 35.0398 18.4835C33.7264 25.2807 28.3725 29.1811 19.3578 29.9003C19.188 29.1761 19.0931 28.3771 19.0931 27.4981C19.0931 26.734 19.158 26.0198 19.2929 25.3506C24.9464 24.8362 28.5423 22.4839 29.8058 18.5185C29.9507 18.064 30.0556 17.5896 30.1405 17.0952C30.2553 16.4259 30.3203 15.7267 30.3203 14.9826C30.3203 14.1186 30.2453 13.3096 30.0905 12.5504C29.9956 12.061 29.8558 11.6015 29.696 11.1521C28.1527 6.84705 23.7578 4.55471 16.8357 4.55471H5.02924V25.4704H11.322C11.2621 26.1247 11.2271 26.7989 11.2271 27.4981C11.2271 28.3721 11.2821 29.2111 11.382 30.0251H5.02924V48.4837H0V0H16.1765C26.9341 0 33.3518 3.80558 34.9549 11.0971C35.0548 11.5566 35.1397 12.026 35.1997 12.5155C35.2996 13.2996 35.3545 14.1236 35.3545 14.9826Z" fill="#3D7FC2"/>
<path id="Vector_2" d="M48 12.5155V56H42.9658V42.5356H31.8185C21.0958 42.5356 14.6782 38.7101 13.055 31.4385C12.9551 30.979 12.8702 30.5096 12.8053 30.0251C12.7004 29.2161 12.6405 28.3771 12.6405 27.4981C12.6405 26.7939 12.6805 26.1247 12.7454 25.4704C12.7953 24.986 12.8603 24.5115 12.9501 24.0521C14.2387 17.23 19.6025 13.3445 28.6572 12.6353C28.817 13.3595 28.9069 14.1386 28.9069 14.9826C28.9069 15.8266 28.827 16.5158 28.6871 17.1851C23.0186 17.6995 19.4177 20.0367 18.1692 24.0221C18.0293 24.4716 17.9294 24.951 17.8495 25.4405C17.7397 26.0947 17.6747 26.7739 17.6747 27.4981C17.6747 28.3771 17.7596 29.2061 17.9195 29.9852C18.0193 30.4746 18.1592 30.9391 18.324 31.3836C19.8822 35.6686 24.2722 37.9809 31.1593 37.9809H42.9658V17.0702H36.668C36.7329 16.396 36.7729 15.7018 36.7729 14.9826C36.7729 14.1286 36.7179 13.3046 36.623 12.5155H48Z" fill="#7AB4E3"/>
</g>
<defs>
<clipPath id="clip0_102_953">
<rect width="48" height="56" fill="white"/>
</clipPath>
</defs>
</svg>
