<svg width="20" height="20" viewBox="0 0 20 20" fill="none" xmlns="http://www.w3.org/2000/svg">
<g id="group_FILL0_wght200_GRAD0_opsz24 1">
<path id="Vector" d="M2.16357 15.513V14.1412C2.16357 13.7544 2.26373 13.4219 2.46405 13.1436C2.66437 12.8653 2.93357 12.6428 3.27166 12.4763C3.99448 12.1322 4.71219 11.8578 5.42478 11.6532C6.13739 11.4486 6.99477 11.3463 7.99691 11.3463C8.99905 11.3463 9.85642 11.4486 10.569 11.6532C11.2816 11.8578 11.9993 12.1322 12.7222 12.4763C13.0602 12.6428 13.3294 12.8653 13.5298 13.1436C13.7301 13.4219 13.8302 13.7544 13.8302 14.1412V15.513H2.16357ZM15.4969 15.513V14.1027C15.4969 13.6198 15.3992 13.164 15.2037 12.7352C15.0082 12.3064 14.7309 11.9385 14.3719 11.6315C14.7811 11.7149 15.1753 11.8305 15.5546 11.9785C15.9339 12.1265 16.3089 12.2929 16.6796 12.4777C17.0407 12.6593 17.3238 12.8918 17.529 13.175C17.7341 13.4582 17.8367 13.7675 17.8367 14.1027V15.513H15.4969ZM7.99691 9.48733C7.30941 9.48733 6.72087 9.24253 6.23128 8.75295C5.7417 8.26337 5.49691 7.67483 5.49691 6.98733C5.49691 6.29981 5.7417 5.71126 6.23128 5.22168C6.72087 4.7321 7.30941 4.4873 7.99691 4.4873C8.68441 4.4873 9.27295 4.7321 9.76253 5.22168C10.2521 5.71126 10.4969 6.29981 10.4969 6.98733C10.4969 7.67483 10.2521 8.26337 9.76253 8.75295C9.27295 9.24253 8.68441 9.48733 7.99691 9.48733ZM14.0546 6.98733C14.0546 7.67483 13.8098 8.26337 13.3202 8.75295C12.8307 9.24253 12.2421 9.48733 11.5546 9.48733C11.5194 9.48733 11.4745 9.48332 11.42 9.47531C11.3655 9.46729 11.3206 9.45848 11.2854 9.44887C11.5677 9.1031 11.7846 8.71953 11.9362 8.29814C12.0878 7.87675 12.1636 7.43915 12.1636 6.98533C12.1636 6.53152 12.0842 6.09789 11.9256 5.68443C11.7669 5.27097 11.5535 4.88475 11.2854 4.52576C11.3302 4.50975 11.3751 4.49933 11.42 4.49451C11.4649 4.48971 11.5097 4.4873 11.5546 4.4873C12.2421 4.4873 12.8307 4.7321 13.3202 5.22168C13.8098 5.71126 14.0546 6.29981 14.0546 6.98733ZM2.99691 14.6796H12.9969V14.1412C12.9969 13.9456 12.948 13.7747 12.8503 13.6283C12.7525 13.482 12.577 13.342 12.3238 13.2085C11.702 12.8762 11.0466 12.6217 10.3575 12.4448C9.66838 12.268 8.88152 12.1796 7.99691 12.1796C7.1123 12.1796 6.32543 12.268 5.63632 12.4448C4.94723 12.6217 4.29178 12.8762 3.66999 13.2085C3.41678 13.342 3.2413 13.482 3.14353 13.6283C3.04578 13.7747 2.99691 13.9456 2.99691 14.1412V14.6796ZM7.99691 8.65399C8.45524 8.65399 8.8476 8.4908 9.17399 8.16441C9.50038 7.83802 9.66357 7.44566 9.66357 6.98733C9.66357 6.52899 9.50038 6.13663 9.17399 5.81024C8.8476 5.48385 8.45524 5.32066 7.99691 5.32066C7.53857 5.32066 7.14621 5.48385 6.81982 5.81024C6.49343 6.13663 6.33024 6.52899 6.33024 6.98733C6.33024 7.44566 6.49343 7.83802 6.81982 8.16441C7.14621 8.4908 7.53857 8.65399 7.99691 8.65399Z" fill="#666666"/>
</g>
</svg>
