<svg width="36" height="36" viewBox="0 0 36 36" fill="none" xmlns="http://www.w3.org/2000/svg">
<g id="mic_FILL0_wght200_GRAD0_opsz24">
<path id="Vector" d="M18 19.5C17.1538 19.5 16.4422 19.2115 15.8655 18.6345C15.2885 18.0578 15 17.3463 15 16.5V7.5C15 6.65375 15.2885 5.94225 15.8655 5.3655C16.4422 4.7885 17.1538 4.5 18 4.5C18.8463 4.5 19.5577 4.7885 20.1345 5.3655C20.7115 5.94225 21 6.65375 21 7.5V16.5C21 17.3463 20.7115 18.0578 20.1345 18.6345C19.5577 19.2115 18.8463 19.5 18 19.5ZM17.25 30.75V25.4741C14.9 25.2586 12.9375 24.298 11.3625 22.5923C9.7875 20.8865 9 18.8558 9 16.5H10.5C10.5 18.575 11.2313 20.3438 12.6938 21.8063C14.1562 23.2688 15.925 24 18 24C20.075 24 21.8438 23.2688 23.3063 21.8063C24.7688 20.3438 25.5 18.575 25.5 16.5H27C27 18.8558 26.2125 20.8865 24.6375 22.5923C23.0625 24.298 21.1 25.2586 18.75 25.4741V30.75H17.25ZM18 18C18.425 18 18.7812 17.8563 19.0688 17.5688C19.3563 17.2813 19.5 16.925 19.5 16.5V7.5C19.5 7.075 19.3563 6.71875 19.0688 6.43125C18.7812 6.14375 18.425 6 18 6C17.575 6 17.2188 6.14375 16.9313 6.43125C16.6438 6.71875 16.5 7.075 16.5 7.5V16.5C16.5 16.925 16.6438 17.2813 16.9313 17.5688C17.2188 17.8563 17.575 18 18 18Z" fill="black"/>
</g>
</svg>
