<svg width="24" height="24" viewBox="0 0 24 24" fill="none" xmlns="http://www.w3.org/2000/svg">
<g id="mic_off_FILL0_wght200_GRAD0_opsz24">
<path id="Vector" d="M16.7308 13.4117L15.973 12.6157C16.0653 12.4246 16.141 12.188 16.2 11.906C16.259 11.624 16.2885 11.3221 16.2885 11.0002H17.2885C17.2885 11.5027 17.2378 11.9486 17.1365 12.3377C17.0352 12.7269 16.8999 13.0849 16.7308 13.4117ZM13.2423 9.91174L12.2885 8.95798V5.00024C12.2885 4.7169 12.1927 4.4794 12.001 4.28773C11.8093 4.09607 11.5718 4.00023 11.2885 4.00023C11.0052 4.00023 10.7677 4.09607 10.576 4.28773C10.3843 4.4794 10.2885 4.7169 10.2885 5.00024V6.91949L9.28851 5.91949V5.00024C9.28851 4.43607 9.48085 3.96174 9.86551 3.57724C10.25 3.19257 10.7243 3.00024 11.2885 3.00024C11.8525 3.00024 12.3268 3.19257 12.7115 3.57724C13.0962 3.96174 13.2885 4.43607 13.2885 5.00024V9.69249C13.2885 9.73482 13.2837 9.77332 13.274 9.80798C13.2645 9.84265 13.2539 9.87724 13.2423 9.91174ZM10.7885 20.5002V16.983C9.22185 16.8393 7.91351 16.1989 6.86351 15.0617C5.81351 13.9246 5.28851 12.5707 5.28851 11.0002H6.28851C6.28851 12.3836 6.7741 13.5627 7.74526 14.5377C8.71643 15.5127 9.89751 16.0002 11.2885 16.0002C12.009 16.0002 12.6811 15.8582 13.3048 15.5742C13.9286 15.2902 14.468 14.9002 14.923 14.404L15.6365 15.1175C15.1532 15.6418 14.5823 16.0694 13.924 16.4002C13.2657 16.7311 12.5538 16.9253 11.7885 16.983V20.5002H10.7885ZM19.9345 20.831L1.95776 2.85399L2.66551 2.14648L20.6423 20.1232L19.9345 20.831Z" fill="black"/>
</g>
</svg>
