<svg width="24" height="24" viewBox="0 0 24 24" fill="none" xmlns="http://www.w3.org/2000/svg">
<g id="more_vert_FILL0_wght200_GRAD0_opsz24 1">
<path id="Vector" d="M12 18.5389C11.725 18.5389 11.4896 18.441 11.2938 18.2452C11.0979 18.0493 11 17.8139 11 17.5389C11 17.2639 11.0979 17.0285 11.2938 16.8327C11.4896 16.6368 11.725 16.5389 12 16.5389C12.275 16.5389 12.5104 16.6368 12.7063 16.8327C12.9021 17.0285 13 17.2639 13 17.5389C13 17.8139 12.9021 18.0493 12.7063 18.2452C12.5104 18.441 12.275 18.5389 12 18.5389ZM12 13.0004C11.725 13.0004 11.4896 12.9025 11.2938 12.7067C11.0979 12.5108 11 12.2754 11 12.0004C11 11.7254 11.0979 11.49 11.2938 11.2942C11.4896 11.0983 11.725 11.0004 12 11.0004C12.275 11.0004 12.5104 11.0983 12.7063 11.2942C12.9021 11.49 13 11.7254 13 12.0004C13 12.2754 12.9021 12.5108 12.7063 12.7067C12.5104 12.9025 12.275 13.0004 12 13.0004ZM12 7.46191C11.725 7.46191 11.4896 7.364 11.2938 7.16816C11.0979 6.97233 11 6.73691 11 6.46191C11 6.18691 11.0979 5.9515 11.2938 5.75566C11.4896 5.55983 11.725 5.46191 12 5.46191C12.275 5.46191 12.5104 5.55983 12.7063 5.75566C12.9021 5.9515 13 6.18691 13 6.46191C13 6.73691 12.9021 6.97233 12.7063 7.16816C12.5104 7.364 12.275 7.46191 12 7.46191Z" fill="black"/>
</g>
</svg>
