<svg width="24" height="25" viewBox="0 0 24 25" fill="none" xmlns="http://www.w3.org/2000/svg">
<g id="toggle_off_FILL0_wght200_GRAD0_opsz24">
<path id="Vector" d="M7 17.5C5.61117 17.5 4.43058 17.0143 3.45825 16.043C2.48608 15.0717 2 13.8922 2 12.5045C2 11.1168 2.48608 9.93583 3.45825 8.9615C4.43058 7.98717 5.61117 7.5 7 7.5H17C18.3888 7.5 19.5694 7.98567 20.5417 8.957C21.5139 9.92833 22 11.1078 22 12.4955C22 13.8832 21.5139 15.0642 20.5417 16.0385C19.5694 17.0128 18.3888 17.5 17 17.5H7ZM7 16.5H17C18.1 16.5 19.0417 16.1083 19.825 15.325C20.6083 14.5417 21 13.6 21 12.5C21 11.4 20.6083 10.4583 19.825 9.675C19.0417 8.89167 18.1 8.5 17 8.5H7C5.9 8.5 4.95833 8.89167 4.175 9.675C3.39167 10.4583 3 11.4 3 12.5C3 13.6 3.39167 14.5417 4.175 15.325C4.95833 16.1083 5.9 16.5 7 16.5ZM6.99775 15C7.69158 15 8.28208 14.7572 8.76925 14.2715C9.25642 13.7858 9.5 13.1961 9.5 12.5023C9.5 11.8084 9.25717 11.2179 8.7715 10.7307C8.28583 10.2436 7.69608 10 7.00225 10C6.30842 10 5.71792 10.2428 5.23075 10.7285C4.74358 11.2142 4.5 11.8039 4.5 12.4978C4.5 13.1916 4.74283 13.7821 5.2285 14.2692C5.71417 14.7564 6.30392 15 6.99775 15Z" fill="black"/>
</g>
</svg>
