<svg width="24" height="25" viewBox="0 0 24 25" fill="none" xmlns="http://www.w3.org/2000/svg">
<g id="toggle_on_FILL0_wght200_GRAD0_opsz24 1">
<path id="Vector" d="M7 17.5C5.61117 17.5 4.43058 17.0143 3.45825 16.043C2.48608 15.0717 2 13.8922 2 12.5045C2 11.1168 2.48608 9.93583 3.45825 8.9615C4.43058 7.98717 5.61117 7.5 7 7.5H17C18.3888 7.5 19.5694 7.98567 20.5417 8.957C21.5139 9.92833 22 11.1078 22 12.4955C22 13.8832 21.5139 15.0642 20.5417 16.0385C19.5694 17.0128 18.3888 17.5 17 17.5H7ZM7 16.5H17C18.1 16.5 19.0417 16.1083 19.825 15.325C20.6083 14.5417 21 13.6 21 12.5C21 11.4 20.6083 10.4583 19.825 9.675C19.0417 8.89167 18.1 8.5 17 8.5H7C5.9 8.5 4.95833 8.89167 4.175 9.675C3.39167 10.4583 3 11.4 3 12.5C3 13.6 3.39167 14.5417 4.175 15.325C4.95833 16.1083 5.9 16.5 7 16.5ZM16.9977 15C17.6916 15 18.2821 14.7572 18.7693 14.2715C19.2564 13.7858 19.5 13.1961 19.5 12.5023C19.5 11.8084 19.2572 11.2179 18.7715 10.7307C18.2858 10.2436 17.6961 10 17.0023 10C16.3084 10 15.7179 10.2428 15.2308 10.7285C14.7436 11.2142 14.5 11.8039 14.5 12.4978C14.5 13.1916 14.7428 13.7821 15.2285 14.2692C15.7142 14.7564 16.3039 15 16.9977 15Z" fill="black"/>
</g>
</svg>
