<svg width="24" height="24" viewBox="0 0 24 24" fill="none" xmlns="http://www.w3.org/2000/svg">
<g id="videocam_FILL0_wght200_GRAD0_opsz24">
<path id="Vector" d="M5.09621 19C4.63588 19 4.25155 18.8458 3.94321 18.5375C3.63488 18.2292 3.48071 17.8448 3.48071 17.3845V6.6155C3.48071 6.15517 3.63488 5.77083 3.94321 5.4625C4.25155 5.15417 4.63588 5 5.09621 5H15.8655C16.3256 5 16.7099 5.15417 17.0182 5.4625C17.3265 5.77083 17.4807 6.15517 17.4807 6.6155V11.2692L20.5192 8.23075V15.7692L17.4807 12.7308V17.3845C17.4807 17.8448 17.3265 18.2292 17.0182 18.5375C16.7099 18.8458 16.3256 19 15.8655 19H5.09621ZM5.09621 18H15.8655C16.0448 18 16.1922 17.9423 16.3077 17.827C16.423 17.7115 16.4807 17.564 16.4807 17.3845V6.6155C16.4807 6.436 16.423 6.2885 16.3077 6.173C16.1922 6.05767 16.0448 6 15.8655 6H5.09621C4.91671 6 4.76921 6.05767 4.65371 6.173C4.53838 6.2885 4.48071 6.436 4.48071 6.6155V17.3845C4.48071 17.564 4.53838 17.7115 4.65371 17.827C4.76921 17.9423 4.91671 18 5.09621 18Z" fill="black"/>
</g>
</svg>
