<svg width="36" height="36" viewBox="0 0 36 36" fill="none" xmlns="http://www.w3.org/2000/svg">
<g id="videocam_off_FILL0_wght200_GRAD0_opsz24">
<path id="Vector" d="M30.8655 23.6537L26.3078 19.0959V22.2718L24.8078 20.7718V9.92302C24.8078 9.65377 24.7213 9.43252 24.5483 9.25927C24.375 9.08627 24.1538 8.99977 23.8845 8.99977H13.0358L11.5358 7.49977H23.8845C24.575 7.49977 25.1515 7.73102 25.614 8.19352C26.0765 8.65602 26.3078 9.23252 26.3078 9.92302V16.9036L30.8655 12.3459V23.6537ZM29.0944 31.448L3.62891 5.98252L4.69053 4.9209L30.1557 30.3864L29.0944 31.448ZM7.32678 7.55752L8.76941 8.99977H7.73066C7.46141 8.99977 7.24028 9.08627 7.06728 9.25927C6.89428 9.43252 6.80778 9.65377 6.80778 9.92302V26.0765C6.80778 26.3458 6.89428 26.567 7.06728 26.7403C7.24028 26.9133 7.46141 26.9998 7.73066 26.9998H23.8845C24.1538 26.9998 24.375 26.9133 24.5483 26.7403C24.7213 26.567 24.8078 26.3458 24.8078 26.0765V25.0382L26.25 26.4804C26.1538 27.0554 25.8889 27.5358 25.4554 27.9215C25.0217 28.307 24.498 28.4998 23.8845 28.4998H7.73066C7.04041 28.4998 6.46403 28.2685 6.00153 27.806C5.53903 27.3435 5.30778 26.767 5.30778 26.0765V9.92302C5.30778 9.30952 5.50053 8.7859 5.88603 8.35215C6.27153 7.9184 6.75178 7.65352 7.32678 7.55752Z" fill="black"/>
</g>
</svg>
