<svg width="36" height="36" viewBox="0 0 36 36" fill="none" xmlns="http://www.w3.org/2000/svg">
<g id="volume_up_FILL0_wght200_GRAD0_opsz24">
<path id="Vector" d="M21.1155 29.2413V27.6663C23.1923 26.9393 24.8653 25.6893 26.1345 23.9163C27.4038 22.1433 28.0384 20.1587 28.0384 17.9625C28.0384 15.7662 27.4038 13.7816 26.1345 12.0086C24.8653 10.2356 23.1923 8.98559 21.1155 8.25859V6.68359C23.6 7.47984 25.625 8.90922 27.1905 10.9717C28.7558 13.0342 29.5384 15.3645 29.5384 17.9625C29.5384 20.5605 28.7558 22.8907 27.1905 24.9532C25.625 27.0157 23.6 28.4451 21.1155 29.2413ZM6.46167 21V15H11.5962L16.9617 9.63447V26.3655L11.5962 21H6.46167ZM21.1155 22.9616V12.9633C21.9635 13.5133 22.6082 14.2375 23.0494 15.1357C23.4909 16.0337 23.7117 16.9885 23.7117 18C23.7117 19.0057 23.4862 19.9466 23.0352 20.8226C22.5842 21.6986 21.9443 22.4116 21.1155 22.9616ZM15.4617 13.275L12.2367 16.5H7.96167V19.5H12.2367L15.4617 22.725V13.275Z" fill="black"/>
</g>
</svg>
