<svg width="40" height="40" viewBox="0 0 40 40" fill="none" xmlns="http://www.w3.org/2000/svg">
<g id="volume_off_FILL0_wght200_GRAD0_opsz24">
<path id="Vector" d="M31.9103 36.1285L26.9007 31.1189C26.4413 31.4136 25.9616 31.6726 25.4616 31.896C24.9616 32.1193 24.4445 32.3175 23.9103 32.4906V30.7406C24.235 30.6231 24.5475 30.5001 24.8478 30.3718C25.1478 30.2437 25.4325 30.0932 25.702 29.9201L19.2949 23.5131V29.2951L13.3332 23.3335H7.62823V16.6668H12.4486L4.32031 8.53847L5.4999 7.35889L33.0895 34.9489L31.9103 36.1285ZM30.6153 27.776L29.4486 26.6093C30.1345 25.6626 30.6649 24.6262 31.0399 23.5001C31.4149 22.374 31.6024 21.1935 31.6024 19.9585C31.6024 17.5182 30.8973 15.3131 29.487 13.3431C28.0767 11.3731 26.2178 9.98416 23.9103 9.17639V7.42639C26.6923 8.31111 28.9475 9.8993 30.6761 12.191C32.4048 14.4826 33.2691 17.0718 33.2691 19.9585C33.2691 21.4093 33.0356 22.7993 32.5686 24.1285C32.102 25.4574 31.4509 26.6732 30.6153 27.776ZM25.9936 23.1539L23.9103 21.0706V14.4039C24.8525 15.015 25.5688 15.8196 26.0591 16.8176C26.5496 17.8154 26.7949 18.8762 26.7949 20.0001C26.7949 20.5662 26.7281 21.1149 26.5945 21.646C26.4609 22.1771 26.2606 22.6797 25.9936 23.1539ZM19.2949 16.4551L16.4357 13.5643L19.2949 10.7051V16.4551ZM17.6282 25.2501V21.8464L14.1153 18.3335H9.2949V21.6668H14.0449L17.6282 25.2501Z" fill="black"/>
</g>
</svg>
